<svg xmlns="http://www.w3.org/2000/svg" width="27.68" height="21.503" viewBox="0 0 27.68 21.503">
  <g id="Group_8453" data-name="Group 8453" transform="translate(-129.75 -215.75)">
    <path id="Path_19270" data-name="Path 19270"
      d="M130,227.942c0-2.388,6.085-4.942,13.59-4.942s13.59,2.554,13.59,4.942l-1.622,7.928c0,2.1-5.359,3.808-11.968,3.808s-11.968-1.7-11.968-3.808Z"
      transform="translate(0 -2.676)" fill="none" stroke="#fff" stroke-miterlimit="10" stroke-width="0.5" />
    <path id="Path_19271" data-name="Path 19271" d="M157.18,231c0,2.388-6.085,4.324-13.59,4.324S130,233.388,130,231"
      transform="translate(0 -5.734)" fill="none" stroke="#fff" stroke-miterlimit="10" stroke-width="0.5" />
    <path id="Path_19272" data-name="Path 19272" d="M154.18,234.235A13.419,13.419,0,0,0,143,234.2"
      transform="translate(-4.97 -6.499)" fill="none" stroke="#fff" stroke-miterlimit="10" stroke-width="0.5" />
    <path id="Path_19273" data-name="Path 19273"
      d="M135.393,231.089c1.68-1.815,5.64-3.089,10.258-3.089s8.578,1.274,10.258,3.089"
      transform="translate(-2.062 -4.587)" fill="none" stroke="#fff" stroke-miterlimit="10" stroke-width="0.5" />
    <path id="Path_19274" data-name="Path 19274" d="M152.942,247.706V244H148v3.706"
      transform="translate(-6.881 -10.704)" fill="#fff" stroke="#fff" stroke-miterlimit="10" stroke-width="0.5" />
    <line id="Line_163" data-name="Line 163" y1="1.253" transform="translate(143.778 218.505)" fill="none" stroke="#fff"
      stroke-miterlimit="10" stroke-width="0.5" />
    <rect id="Rectangle_1794" data-name="Rectangle 1794" width="6.263" height="2.505" transform="translate(140.021 216)"
      fill="none" stroke="#fff" stroke-miterlimit="10" stroke-width="0.5" />
    <path id="Path_19275" data-name="Path 19275" d="M140,222.739l.618-2.739h1.235" transform="translate(-3.823 -1.529)"
      fill="none" stroke="#fff" stroke-miterlimit="10" stroke-width="0.5" />
    <path id="Path_19276" data-name="Path 19276" d="M132.238,225.535,133.326,222h1.235"
      transform="translate(-0.855 -2.294)" fill="none" stroke="#fff" stroke-miterlimit="10" stroke-width="0.5" />
    <path id="Path_19277" data-name="Path 19277" d="M162.853,222.739,162.235,220H161"
      transform="translate(-11.851 -1.529)" fill="none" stroke="#fff" stroke-miterlimit="10" stroke-width="0.5" />
    <path id="Path_19278" data-name="Path 19278" d="M170.324,225.535,169.235,222H168"
      transform="translate(-14.527 -2.294)" fill="none" stroke="#fff" stroke-miterlimit="10" stroke-width="0.5" />
  </g>
</svg>
